<?xml version="1.0" standalone="no"?>
<!DOCTYPE svg PUBLIC "-//W3C//DTD SVG 20010904//EN"
 "http://www.w3.org/TR/2001/REC-SVG-20010904/DTD/svg10.dtd">
<svg version="1.0" xmlns="http://www.w3.org/2000/svg"
 width="500.000000pt" height="500.000000pt" viewBox="0 0 500.000000 500.000000"
 preserveAspectRatio="xMidYMid meet">

<g transform="translate(0.000000,500.000000) scale(0.100000,-0.100000)"
fill="#000000" stroke="none">
<path d="M0 2500 l0 -2500 2500 0 2500 0 0 2500 0 2500 -2500 0 -2500 0 0
-2500z m2231 1655 c210 -67 342 -70 508 -12 85 30 119 37 181 37 158 0 279
-73 372 -225 70 -114 162 -399 193 -600 22 -138 17 -318 -10 -385 -39 -96 -97
-140 -186 -140 -92 0 -144 33 -304 195 -123 125 -147 144 -200 164 -96 36
-159 44 -315 38 -240 -9 -298 -34 -442 -188 -125 -134 -216 -200 -287 -207
-71 -6 -116 5 -155 38 -71 62 -103 204 -86 379 29 301 148 656 264 787 52 59
127 110 189 129 70 23 191 18 278 -10z m-1248 -1646 c46 -13 102 -60 126 -108
16 -30 41 -149 41 -190 0 -7 -39 -11 -110 -11 l-110 0 0 34 c0 58 -16 86 -48
86 -35 0 -52 -16 -52 -51 0 -37 32 -79 152 -199 66 -66 116 -126 134 -160 27
-52 29 -62 29 -175 0 -128 -11 -181 -48 -236 -69 -103 -283 -120 -388 -32 -59
50 -89 148 -89 290 l0 73 110 0 110 0 0 -94 c0 -73 4 -98 16 -110 44 -45 90 5
81 88 -8 77 -26 106 -151 235 -136 140 -158 182 -160 290 -1 42 5 97 13 124
17 60 74 124 126 142 48 17 165 19 218 4z m612 0 c57 -16 120 -84 140 -153 14
-46 16 -109 13 -403 -3 -342 -3 -349 -27 -401 -30 -66 -76 -107 -143 -127 -97
-29 -209 -10 -272 45 -18 17 -44 54 -57 82 -24 53 -24 55 -24 428 0 365 1 376
22 415 28 53 72 93 119 110 47 17 174 19 229 4z m465 -454 l0 -455 110 0 110
0 0 -90 0 -90 -220 0 -220 0 0 545 0 545 110 0 110 0 0 -455z m730 438 c0 -20
86 -927 95 -1010 l6 -53 -105 0 -106 0 0 39 c0 21 -3 59 -6 85 l-7 46 -62 0
c-62 0 -63 0 -69 -31 -3 -17 -6 -56 -6 -85 l0 -54 -105 0 -105 0 0 29 c0 30
86 937 95 1009 l6 42 185 0 c169 0 184 -1 184 -17z m395 -5 c3 -13 25 -124 49
-248 l44 -225 1 248 1 247 105 0 105 0 0 -545 0 -545 -105 0 c-58 0 -105 1
-105 3 -1 1 -25 119 -54 262 l-54 260 -1 -262 -1 -263 -105 0 -105 0 0 545 0
545 110 0 c105 0 110 -1 115 -22z m616 -190 c0 -117 4 -204 8 -193 4 11 27
107 51 213 l44 192 108 0 c59 0 108 -3 108 -7 0 -5 -27 -116 -59 -248 l-59
-240 69 -285 c38 -157 72 -291 74 -297 3 -10 -23 -13 -109 -13 l-112 0 -54
238 c-29 130 -57 246 -61 257 -4 11 -8 -96 -8 -237 l-1 -258 -105 0 -105 0 0
545 0 545 105 0 105 0 1 -212z m579 -333 l0 -545 -105 0 -105 0 0 545 0 545
105 0 105 0 0 -545z m-2912 -831 c12 -8 22 -22 22 -30 0 -20 -13 -18 -33 6
-28 33 -91 18 -107 -26 -25 -64 34 -127 95 -104 34 13 34 50 0 50 -14 0 -25 5
-25 10 0 6 18 10 40 10 39 0 40 -1 40 -35 0 -28 -5 -37 -30 -50 -74 -38 -150
5 -150 85 0 79 86 128 148 84z m236 -80 c21 -52 35 -98 31 -102 -8 -8 -35 26
-35 45 0 9 -14 13 -44 13 -40 0 -45 -3 -55 -30 -5 -16 -17 -30 -25 -30 -14 0
-12 8 55 178 16 42 35 23 73 -74z m177 11 c16 -47 29 -74 33 -65 3 8 16 44 28
80 15 42 29 66 41 68 15 3 17 -7 17 -97 0 -61 -4 -101 -10 -101 -6 0 -10 32
-10 77 0 89 -8 87 -40 -9 -12 -38 -27 -68 -34 -68 -6 0 -24 35 -38 78 l-26 77
-1 -77 c-1 -62 -4 -78 -16 -78 -12 0 -15 18 -15 101 0 97 1 100 22 97 17 -2
27 -19 49 -83z m349 75 c0 -5 -25 -10 -55 -10 l-55 0 0 -35 0 -35 55 0 c30 0
55 -4 55 -10 0 -5 -25 -10 -55 -10 l-55 0 0 -35 0 -35 60 0 c33 0 60 -4 60
-10 0 -6 -32 -10 -75 -10 l-75 0 0 100 0 100 70 0 c40 0 70 -4 70 -10z m328
-6 c12 -8 22 -22 22 -30 0 -19 -16 -18 -24 2 -8 22 -80 15 -84 -8 -2 -11 8
-20 35 -28 85 -27 110 -72 58 -106 -44 -29 -125 -5 -125 37 0 24 8 24 28 -1
25 -28 65 -35 86 -15 25 25 16 38 -38 55 -44 14 -76 41 -76 62 0 4 9 17 20 28
24 24 67 26 98 4z m262 7 c0 -6 -15 -11 -32 -13 l-33 -3 -3 -87 c-1 -49 -7
-88 -12 -88 -5 0 -11 39 -12 88 l-3 87 -32 3 c-65 6 -31 22 47 22 44 0 80 -4
80 -9z m100 -71 c0 -68 3 -81 19 -90 56 -30 81 0 81 96 0 61 3 74 16 74 14 0
16 -12 12 -81 -3 -70 -6 -83 -27 -100 -32 -27 -77 -24 -106 6 -22 21 -25 33
-25 100 0 60 3 75 15 75 12 0 15 -16 15 -80z m348 60 c27 -25 36 -60 28 -105
-9 -49 -47 -75 -107 -75 l-49 0 0 100 0 100 53 0 c40 0 59 -5 75 -20z m142
-80 c0 -60 -4 -100 -10 -100 -6 0 -10 40 -10 100 0 60 4 100 10 100 6 0 10
-40 10 -100z m223 89 c30 -14 50 -49 50 -89 0 -89 -93 -132 -154 -71 -78 78 5
205 104 160z m-2513 -119 c0 -5 -16 -10 -35 -10 -19 0 -35 5 -35 10 0 6 16 10
35 10 19 0 35 -4 35 -10z m2830 0 c0 -5 -16 -10 -35 -10 -19 0 -35 5 -35 10 0
6 16 10 35 10 19 0 35 -4 35 -10z"/>
<path d="M1962 3807 c-17 -18 -22 -36 -22 -79 l0 -56 -61 -4 c-49 -4 -66 -9
-80 -27 -25 -30 -24 -62 1 -89 17 -18 32 -22 80 -22 l60 0 0 -60 c0 -51 4 -65
25 -85 13 -14 34 -25 45 -25 12 0 32 11 45 25 21 20 25 34 25 85 l0 60 63 0
c48 0 68 4 79 18 55 64 9 122 -98 122 l-44 0 0 58 c0 48 -4 62 -23 80 -30 28
-68 28 -95 -1z"/>
<path d="M3031 3786 c-89 -49 -53 -186 49 -186 33 0 48 6 71 29 80 81 -20 212
-120 157z"/>
<path d="M2824 3576 c-22 -22 -34 -44 -34 -60 0 -93 107 -140 171 -77 62 63
20 171 -66 171 -29 0 -45 -8 -71 -34z"/>
<path d="M1446 2298 c-14 -19 -16 -66 -15 -323 1 -165 4 -311 8 -325 4 -15 18
-29 35 -35 54 -19 56 -7 56 355 0 240 -3 329 -12 338 -19 19 -55 14 -72 -10z"/>
<path d="M2575 2063 c-9 -148 -18 -272 -19 -278 0 -5 20 -11 47 -13 33 -2 47
1 47 10 1 44 -45 548 -50 548 -4 0 -15 -120 -25 -267z"/>
<path d="M1642 1100 c-26 -67 -26 -70 7 -70 34 0 36 7 16 60 l-13 35 -10 -25z"/>
<path d="M3167 1124 c-4 -4 -7 -40 -7 -81 l0 -73 35 0 c47 0 75 29 75 78 0 21
-6 46 -12 54 -14 18 -79 34 -91 22z"/>
<path d="M3563 1120 c-41 -16 -49 -103 -12 -132 11 -10 30 -18 41 -18 30 0 68
45 68 80 0 19 -9 40 -25 55 -26 27 -37 29 -72 15z"/>
</g>
</svg>
